<?xml version="1.0" encoding="UTF-8"?>
<svg xmlns="http://www.w3.org/2000/svg" width="132" height="44" viewBox="0 0 132 44" fill="none">
  <path d="M1.28 33.5V9.98H4.8C5.99467 9.98 7.024 10.1933 7.888 10.62C8.76267 11.036 9.43467 11.692 9.904 12.588C10.384 13.484 10.624 14.6413 10.624 16.06C10.624 17.1907 10.4747 18.1773 10.176 19.02C9.888 19.8627 9.32267 20.5507 8.48 21.084C9.33333 21.5533 9.94667 22.3 10.32 23.324C10.6933 24.3373 10.88 25.5107 10.88 26.844C10.88 28.156 10.6667 29.3133 10.24 30.316C9.824 31.3187 9.20533 32.1027 8.384 32.668C7.57333 33.2227 6.57067 33.5 5.376 33.5H1.28ZM4.736 30.076C5.78133 30.076 6.46933 29.7667 6.8 29.148C7.13067 28.5187 7.296 27.6227 7.296 26.46C7.296 25.276 7.13067 24.38 6.8 23.772C6.46933 23.1533 5.78133 22.844 4.736 22.844V30.076ZM4.736 19.676C5.70667 19.676 6.37333 19.4093 6.736 18.876C7.10933 18.3427 7.296 17.5533 7.296 16.508C7.296 15.452 7.104 14.6733 6.72 14.172C6.34667 13.66 5.68533 13.404 4.736 13.404V19.676ZM12.9363 33.5V9.98H16.3923V30.3H20.9683V33.5H12.9363ZM21.9663 33.5L25.5182 9.98H29.7423L33.2943 33.5H29.9343L29.2943 28.7H25.9663L25.3263 33.5H21.9663ZM26.4463 25.052H28.8143L27.8223 17.148L27.7263 15.9H27.5343L27.4383 17.148L26.4463 25.052ZM39.5718 33.756C38.5904 33.756 37.7531 33.5373 37.0598 33.1C36.3771 32.652 35.8544 32.044 35.4918 31.276C35.1398 30.508 34.9638 29.6387 34.9638 28.668V14.812C34.9638 13.852 35.1451 12.988 35.5078 12.22C35.8811 11.452 36.4144 10.844 37.1078 10.396C37.8011 9.948 38.6224 9.724 39.5718 9.724C40.2864 9.724 40.9264 9.85733 41.4918 10.124C42.0571 10.3907 42.5371 10.7587 42.9318 11.228C43.3371 11.6867 43.6464 12.2253 43.8598 12.844C44.0731 13.452 44.1798 14.108 44.1798 14.812V18.044H40.9478V14.812C40.9478 14.3213 40.8464 13.9107 40.6438 13.58C40.4411 13.2493 40.1051 13.084 39.6358 13.084C39.2091 13.084 38.8998 13.2547 38.7078 13.596C38.5158 13.9373 38.4198 14.3427 38.4198 14.812V28.668C38.4198 29.1373 38.5211 29.5427 38.7238 29.884C38.9371 30.2253 39.2411 30.396 39.6358 30.396C40.1158 30.396 40.4518 30.2307 40.6438 29.9C40.8464 29.5693 40.9478 29.1587 40.9478 28.668V25.436H44.1798V28.668C44.1798 29.628 43.9931 30.492 43.6198 31.26C43.2464 32.028 42.7131 32.636 42.0198 33.084C41.3371 33.532 40.5211 33.756 39.5718 33.756ZM46.5925 33.5V9.98H50.0485V17.82V18.204H50.1765L50.3365 17.82L53.0245 9.98H56.5765L53.4085 17.724L56.9925 33.5H53.4405L51.1365 22.78H51.0405L50.0485 25.18V33.5H46.5925Z" fill="white"></path>
  <path d="M67.6 19.99C68.24 19.99 68.74 20.17 69.1 20.53C69.48 20.89 69.67 21.39 69.67 22.03C69.67 22.19 69.66 22.36 69.64 22.54C69.62 22.7 69.58 22.84 69.52 22.96C69.26 22.92 68.97 22.89 68.65 22.87C68.33 22.83 67.95 22.81 67.51 22.81C66.61 22.81 65.71 22.89 64.81 23.05C63.91 23.21 63.05 23.34 62.23 23.44C61.33 25.56 60.59 27.55 60.01 29.41C59.43 31.27 58.98 33.11 58.66 34.93C57.98 34.77 57.38 34.48 56.86 34.06C56.34 33.64 55.85 33.05 55.39 32.29C55.53 31.97 55.7 31.59 55.9 31.15C56.1 30.69 56.34 30.12 56.62 29.44C56.9 28.74 57.23 27.9 57.61 26.92C58.01 25.92 58.48 24.73 59.02 23.35C58.18 23.07 57.63 22.58 57.37 21.88C57.47 21.78 57.75 21.67 58.21 21.55C58.67 21.41 59.23 21.26 59.89 21.1C60.19 20.32 60.45 19.63 60.67 19.03C60.89 18.41 61.09 17.83 61.27 17.29C61.45 16.73 61.61 16.19 61.75 15.67C61.91 15.13 62.05 14.56 62.17 13.96H62.02C61.26 13.96 60.64 13.78 60.16 13.42C59.7 13.06 59.47 12.59 59.47 12.01C59.47 11.85 59.49 11.66 59.53 11.44C59.59 11.22 59.66 11.03 59.74 10.87C60.12 10.93 60.49 10.97 60.85 10.99C61.23 11.01 61.72 11.02 62.32 11.02C63.58 11.02 64.76 10.99 65.86 10.93C66.96 10.85 67.95 10.77 68.83 10.69C69.73 10.61 70.5 10.54 71.14 10.48C71.78 10.4 72.27 10.36 72.61 10.36C73.07 10.36 73.48 10.6 73.84 11.08C74.2 11.56 74.48 12.24 74.68 13.12C74.04 13.06 73.52 13.02 73.12 13C72.74 12.98 72.4 12.97 72.1 12.97C71.08 12.97 70.14 13.02 69.28 13.12C68.44 13.2 67.64 13.3 66.88 13.42C66.76 13.6 66.62 13.83 66.46 14.11C66.32 14.39 66.13 14.79 65.89 15.31C65.65 15.81 65.34 16.47 64.96 17.29C64.6 18.11 64.14 19.15 63.58 20.41C64.36 20.29 65.1 20.19 65.8 20.11C66.52 20.03 67.12 19.99 67.6 19.99ZM70.2154 31.9C70.3154 31.32 70.4854 30.56 70.7254 29.62C70.9854 28.66 71.2854 27.65 71.6254 26.59C71.9654 25.51 72.3254 24.43 72.7054 23.35C73.0854 22.27 73.4554 21.3 73.8154 20.44C74.0754 19.82 74.3054 19.34 74.5054 19C74.7054 18.64 74.9254 18.34 75.1654 18.1C75.4454 18.14 75.7354 18.21 76.0354 18.31C76.3354 18.41 76.6254 18.53 76.9054 18.67C77.1854 18.81 77.4354 18.96 77.6554 19.12C77.8754 19.26 78.0454 19.4 78.1654 19.54C77.6254 20.18 77.1454 20.91 76.7254 21.73C76.3254 22.55 75.9154 23.6 75.4954 24.88C76.5754 23.92 77.5254 23 78.3454 22.12C79.1854 21.24 79.9654 20.26 80.6854 19.18C80.8054 19.08 81.0154 19.03 81.3154 19.03C81.5954 19.03 81.8654 19.08 82.1254 19.18C82.3854 19.26 82.5654 19.38 82.6654 19.54C82.3054 20.5 82.1254 21.45 82.1254 22.39C82.1254 23.27 82.2554 23.93 82.5154 24.37C82.4954 24.49 82.3554 24.72 82.0954 25.06C81.8554 25.4 81.5854 25.72 81.2854 26.02C80.7454 25.74 80.2654 25.36 79.8454 24.88C79.4254 24.38 79.1154 23.84 78.9154 23.26C77.9754 23.92 77.1754 24.57 76.5154 25.21C75.8554 25.83 75.2854 26.53 74.8054 27.31C74.3454 28.07 73.9454 28.95 73.6054 29.95C73.2854 30.95 72.9754 32.14 72.6754 33.52C72.4954 33.5 72.2754 33.43 72.0154 33.31C71.7754 33.21 71.5254 33.08 71.2654 32.92C71.0254 32.76 70.8054 32.59 70.6054 32.41C70.4054 32.23 70.2754 32.06 70.2154 31.9ZM83.065 30.49C83.065 30.31 83.075 30.09 83.095 29.83C83.135 29.55 83.195 29.19 83.275 28.75C83.355 28.29 83.455 27.74 83.575 27.1C83.715 26.46 83.885 25.69 84.085 24.79C84.125 24.59 84.215 24.27 84.355 23.83C84.495 23.39 84.675 22.93 84.895 22.45C85.135 21.95 85.415 21.47 85.735 21.01C86.075 20.55 86.475 20.21 86.935 19.99C87.275 20.07 87.725 20.28 88.285 20.62C88.845 20.94 89.325 21.39 89.725 21.97C89.265 22.49 88.875 23.01 88.555 23.53C88.255 24.05 87.975 24.59 87.715 25.15C87.475 25.71 87.245 26.29 87.025 26.89C86.825 27.49 86.595 28.12 86.335 28.78C86.115 29.34 85.915 29.92 85.735 30.52C85.555 31.1 85.455 31.61 85.435 32.05C85.435 32.41 85.425 32.66 85.405 32.8C85.405 32.96 85.355 33.04 85.255 33.04C85.175 33.04 85.015 32.99 84.775 32.89C84.535 32.79 84.285 32.64 84.025 32.44C83.785 32.22 83.565 31.95 83.365 31.63C83.165 31.31 83.065 30.93 83.065 30.49ZM88.795 17.47C88.795 17.35 88.825 17.17 88.885 16.93C88.785 16.83 88.695 16.68 88.615 16.48C88.555 16.28 88.525 16.1 88.525 15.94C88.525 15.76 88.545 15.52 88.585 15.22C88.645 14.9 88.715 14.56 88.795 14.2C88.875 13.84 88.975 13.47 89.095 13.09C89.215 12.69 89.335 12.33 89.455 12.01C89.695 12.01 89.985 12.08 90.325 12.22C90.685 12.34 91.045 12.51 91.405 12.73C91.765 12.93 92.095 13.16 92.395 13.42C92.695 13.66 92.925 13.89 93.085 14.11C92.865 14.33 92.575 14.64 92.215 15.04C91.855 15.42 91.505 15.83 91.165 16.27C90.825 16.69 90.515 17.09 90.235 17.47C89.955 17.85 89.775 18.12 89.695 18.28C89.455 18.24 89.245 18.14 89.065 17.98C88.885 17.8 88.795 17.63 88.795 17.47ZM96.6648 18.49C97.0648 18.49 97.5248 18.61 98.0448 18.85C98.5648 19.09 99.0248 19.4 99.4248 19.78C99.3248 18.98 99.1948 18.23 99.0348 17.53C98.8948 16.81 98.6748 16.07 98.3748 15.31C98.0948 14.55 97.7148 13.72 97.2348 12.82C96.7548 11.92 96.1548 10.89 95.4348 9.73C95.4948 9.55 95.6248 9.34 95.8248 9.1C96.0448 8.86 96.2848 8.64 96.5448 8.44C96.8248 8.22 97.1048 8.03 97.3848 7.87C97.6848 7.71 97.9648 7.61 98.2248 7.57C98.7848 8.19 99.3148 8.97 99.8148 9.91C100.315 10.83 100.755 11.83 101.135 12.91C101.515 13.97 101.805 15.07 102.005 16.21C102.225 17.35 102.335 18.44 102.335 19.48C102.335 20.52 102.215 21.59 101.975 22.69C101.755 23.79 101.435 24.87 101.015 25.93C100.615 26.97 100.145 27.96 99.6048 28.9C99.0648 29.84 98.4748 30.68 97.8348 31.42C97.2148 32.16 96.5648 32.76 95.8848 33.22C95.2048 33.7 94.5248 34 93.8448 34.12C92.4648 33.96 91.4048 33.51 90.6648 32.77C89.9448 32.05 89.5848 31.05 89.5848 29.77C89.5848 29.09 89.6848 28.35 89.8848 27.55C90.1048 26.75 90.3848 25.96 90.7248 25.18C91.0848 24.38 91.4948 23.61 91.9548 22.87C92.4348 22.11 92.9348 21.43 93.4548 20.83C93.9948 20.23 94.5348 19.72 95.0748 19.3C95.6148 18.88 96.1448 18.61 96.6648 18.49ZM93.6048 32.92C94.3048 32.68 95.0048 32.15 95.7048 31.33C96.4048 30.51 97.0348 29.55 97.5948 28.45C98.1548 27.33 98.6048 26.14 98.9448 24.88C99.3048 23.6 99.4848 22.37 99.4848 21.19C99.4848 20.85 99.4848 20.64 99.4848 20.56C99.4848 20.48 99.4748 20.4 99.4548 20.32C98.9748 20.52 98.4648 20.86 97.9248 21.34C97.3848 21.82 96.8448 22.38 96.3048 23.02C95.7648 23.64 95.2548 24.32 94.7748 25.06C94.2948 25.8 93.8648 26.54 93.4848 27.28C93.1048 28.02 92.8048 28.73 92.5848 29.41C92.3648 30.09 92.2548 30.69 92.2548 31.21C92.2548 32.21 92.7048 32.78 93.6048 32.92ZM113.453 20.38C113.653 20.38 113.883 20.42 114.143 20.5C114.423 20.56 114.673 20.65 114.893 20.77C115.113 20.87 115.293 20.98 115.433 21.1C115.593 21.22 115.673 21.33 115.673 21.43C115.273 22.27 114.903 23.12 114.563 23.98C114.223 24.82 113.933 25.63 113.693 26.41C113.453 27.19 113.263 27.92 113.123 28.6C113.003 29.28 112.943 29.87 112.943 30.37C112.943 30.93 113.003 31.4 113.123 31.78C113.243 32.14 113.443 32.4 113.723 32.56C113.483 32.72 113.173 32.85 112.793 32.95C112.413 33.05 112.073 33.1 111.773 33.1C110.693 33.1 110.153 32.36 110.153 30.88C110.153 29.74 110.533 28.18 111.293 26.2C110.893 27.12 110.433 27.99 109.913 28.81C109.393 29.61 108.863 30.32 108.323 30.94C107.783 31.56 107.233 32.07 106.673 32.47C106.133 32.85 105.633 33.08 105.173 33.16C104.433 33.12 103.833 32.77 103.373 32.11C102.913 31.43 102.683 30.57 102.683 29.53C102.683 28.41 102.923 27.23 103.403 25.99C103.883 24.75 104.493 23.6 105.233 22.54C105.993 21.48 106.813 20.6 107.693 19.9C108.573 19.18 109.423 18.8 110.243 18.76C110.443 18.82 110.663 18.94 110.903 19.12C111.163 19.3 111.403 19.51 111.623 19.75C111.863 19.99 112.063 20.24 112.223 20.5C112.383 20.74 112.473 20.95 112.493 21.13C111.693 21.25 110.863 21.64 110.003 22.3C109.163 22.96 108.393 23.76 107.693 24.7C107.013 25.62 106.453 26.61 106.013 27.67C105.573 28.73 105.353 29.72 105.353 30.64C105.353 31.02 105.493 31.26 105.773 31.36C106.353 31.24 107.023 30.75 107.783 29.89C108.543 29.01 109.463 27.66 110.543 25.84C110.743 25.48 110.963 25.08 111.203 24.64C111.463 24.2 111.723 23.74 111.983 23.26C112.243 22.78 112.493 22.3 112.733 21.82C112.993 21.32 113.233 20.84 113.453 20.38ZM128.358 27.85C127.898 29.31 127.438 30.64 126.978 31.84C126.518 33.04 126.028 34.14 125.508 35.14C124.988 36.16 124.428 37.09 123.828 37.93C123.228 38.79 122.568 39.6 121.848 40.36C120.928 41.32 119.978 42.05 118.998 42.55C118.018 43.07 117.038 43.33 116.058 43.33C115.558 43.33 115.058 43.27 114.558 43.15C114.078 43.05 113.628 42.9 113.208 42.7C112.768 42.52 112.388 42.3 112.068 42.04C111.728 41.8 111.488 41.54 111.348 41.26C111.348 41.02 111.488 40.81 111.768 40.63C112.008 40.85 112.208 41.02 112.368 41.14C112.528 41.26 112.688 41.36 112.848 41.44C112.988 41.52 113.148 41.57 113.328 41.59C113.488 41.61 113.678 41.62 113.898 41.62C115.038 41.62 116.148 41.28 117.228 40.6C118.328 39.94 119.358 38.99 120.318 37.75C121.298 36.53 122.188 35.04 122.988 33.28C123.788 31.54 124.468 29.59 125.028 27.43C124.768 27.83 124.448 28.32 124.068 28.9C123.688 29.48 123.268 30.06 122.808 30.64C122.348 31.2 121.868 31.71 121.368 32.17C120.888 32.63 120.418 32.94 119.958 33.1C119.638 33.08 119.298 33.01 118.938 32.89C118.598 32.79 118.268 32.64 117.948 32.44C117.648 32.24 117.378 32 117.138 31.72C116.898 31.44 116.738 31.12 116.658 30.76C116.658 30.18 116.678 29.72 116.718 29.38C116.758 29.02 116.828 28.63 116.928 28.21C117.108 27.45 117.368 26.59 117.708 25.63C118.068 24.67 118.478 23.73 118.938 22.81C119.418 21.87 119.938 21 120.498 20.2C121.078 19.38 121.678 18.74 122.298 18.28C122.458 18.28 122.658 18.3 122.898 18.34C123.138 18.36 123.388 18.41 123.648 18.49C123.908 18.57 124.158 18.67 124.398 18.79C124.638 18.89 124.848 19.03 125.028 19.21C124.808 19.41 124.328 20.08 123.588 21.22C122.848 22.36 122.028 24 121.128 26.14C121.028 26.36 120.908 26.68 120.768 27.1C120.628 27.52 120.488 27.96 120.348 28.42C120.228 28.88 120.118 29.33 120.018 29.77C119.918 30.21 119.868 30.56 119.868 30.82C119.868 30.98 119.888 31.1 119.928 31.18C119.988 31.26 120.038 31.32 120.078 31.36C120.438 31.3 120.918 31.01 121.518 30.49C122.118 29.95 122.798 29.12 123.558 28C124.038 27.28 124.478 26.57 124.878 25.87C125.278 25.15 125.668 24.43 126.048 23.71C126.448 22.99 126.858 22.25 127.278 21.49C127.698 20.73 128.148 19.95 128.628 19.15C128.888 19.15 129.168 19.18 129.468 19.24C129.768 19.3 130.058 19.38 130.338 19.48C130.618 19.56 130.858 19.66 131.058 19.78C131.278 19.88 131.438 19.99 131.538 20.11C130.918 21.43 130.338 22.72 129.798 23.98C129.258 25.24 128.778 26.53 128.358 27.85Z" fill="#FC3746"></path>
</svg>
